# xmcd
#
# Track frame offsets:
#	150
#	21910
#	40520
#	55175
#	69950
#	87615
#	93000
#	114187
#	133332
#	146420
#	164825
#	170395
#	189962
#
# Disc length: 2702 seconds
#
# Revision: 1
# Processed by: cddbd v1.5.2PL0 Copyright (c) Steve Scherf et al.
# Submitted via: audiograbber 1.83.01
#
DISCID=a80a8c0d
DTITLE=Trond Granlund - I Can't Quit Now
DYEAR=1993
DGENRE=Blues
TTITLE0=Blue Montana Sky
TTITLE1=The Way I Feel
TTITLE2=Fat Willy and St. Louis Slim
TTITLE3=Today Is The Highway
TTITLE4=Love On The Rocks
TTITLE5=Waitin For The Federals
TTITLE6=Nobody Ever Killed Billy The Kid
TTITLE7=Close The Door Lightly
TTITLE8=Hey Babe
TTITLE9=Inside
TTITLE10=Calum Donaldson
TTITLE11=Driftin
TTITLE12=Old Joe Clark
EXTD=YEAR: 1993 ID3G: 0
EXTT0=
EXTT1=
EXTT2=
EXTT3=
EXTT4=
EXTT5=
EXTT6=
EXTT7=
EXTT8=
EXTT9=
EXTT10=
EXTT11=
EXTT12=
PLAYORDER=
